<svg xmlns="http://www.w3.org/2000/svg" width="240" height="239" xmlns:xlink="http://www.w3.org/1999/xlink" viewBox="0 0 240 239"><defs><style>.cls-1{fill:#1493f2;}.cls-2{fill:url(#未命名的渐变_33);}.cls-3{fill:url(#未命名的渐变_33-2);}</style><linearGradient id="未命名的渐变_33" x1="200.89" y1="127.89" x2="165.12" y2="163.66" gradientUnits="userSpaceOnUse"><stop offset="0" stop-opacity="0"/><stop offset="1" stop-opacity="0.5"/></linearGradient><linearGradient id="未命名的渐变_33-2" x1="86.61" y1="13.61" x2="50.84" y2="49.39" xlink:href="#未命名的渐变_33"/></defs><title>资源 1</title><g id="图层_2" data-name="图层 2"><g id="图层_12" data-name="图层 12"><polygon class="cls-1" points="0 146.56 0 239 92.44 239 0 146.56"/><path class="cls-1" d="M188.49,187.49A100.52,100.52,0,0,0,149.06,0H0V83L156,239h84ZM139,137.5h-.51l-5.24-5.24-31.74-31.74L64,63h81.08A37.5,37.5,0,0,1,139,137.5Z"/><path class="cls-2" d="M176.34,103.34A37.49,37.49,0,0,1,139,137.5H139l49.82,49.82A100.94,100.94,0,0,0,225,152Z"/><polygon class="cls-3" points="64.45 63 136 63 73 0 1.45 0 64.45 63"/></g></g></svg>